<svg version="1" xmlns="http://www.w3.org/2000/svg" width="682.667" height="682.667" viewBox="0 0 512.000000 512.000000"><path d="M249.6.7c-3.1.8-8.8 4.8-12.2 8.4-2.6 2.8-8.7 12.7-21.9 35.1-3 5-12.8 21.6-13.8 23.3-3.1 5.1-9.8 16.4-26.2 44-9.7 16.5-19.5 32.8-21.6 36.3-2.2 3.5-3.9 6.7-3.9 7.3 0 .5-.4.9-1 .9-.5 0-1 .5-1 1 0 .6-2.2 4.7-5 9.1-2.7 4.4-5 8.2-5 8.4 0 .2-2.7 4.9-6.1 10.4l-6 10.1-29.2-19.7c-16.1-10.8-38.8-26.1-50.4-34-23.1-15.5-24.7-16.2-31.1-12.3-1.8 1.1-3.7 3.2-4.2 4.6-.6 1.6-1 70.8-1 190.5V512l122.8-.2 122.7-.3 4.2-2.7c10.6-6.9 14.6-20.5 9.5-32-2.6-5.9-4.8-8.4-10.2-11.6l-4.5-2.7-90-.2c-49.5-.2-93.4-.3-97.6-.3h-7.6l.1-28.3.1-28.2 6.5-11c3.6-6 7-11.7 7.5-12.7.6-.9 2.3-3.8 3.9-6.5 1.6-2.6 10.1-17 18.9-31.8 8.8-14.9 23.7-39.9 33.2-55.7l17.1-28.7 14.4 9.8c8 5.3 32.4 21.7 54.3 36.5 23.2 15.5 40.4 26.5 41.3 26.2.7-.3 19-12.4 40.5-26.8 58.7-39.5 65.2-43.8 65.4-43.6 0 .2 1.2 2.1 2.6 4.3 3.4 5.3 52.5 84.3 71.8 115.5 8.6 13.9 15.1 25.5 15.2 27 .3 13.9 0 53.3-.4 53.7-.3.3-23.4.5-51.3.5-49.3-.1-51 0-55.6 2-16.3 7-19.3 30.5-5.5 42.3 2.2 1.9 5.7 4 7.6 4.5 2.2.6 32.4 1 79.3 1h75.7l-.2-188.8c-.2-206.1.2-191-6-194.7-4.1-2.4-9.6-1.5-15.4 2.7-2.7 1.9-20.5 14-39.8 26.9-19.2 12.9-35.2 23.6-35.5 23.9-1 1.1-19.3 13-19.5 12.8-.1-.2-5.5-9.3-12-20.3s-15-25.4-19-32c-3.9-6.6-13.8-23.3-22-37-13.9-23.5-35.3-59.5-48.7-82-7.9-13.2-11.6-17.5-17.4-20.6C261.6.4 254.3-.6 249.6.7zm12.9 87.7c2 2.7 13.9 22.3 19.7 32.6 1.1 1.9 4.9 8.3 8.4 14.1 3.5 5.9 6.4 11.2 6.4 11.8 0 .6.5 1.1 1 1.1.6 0 1 .7 1 1.5s.3 1.5.8 1.5c.4 0 1.3 1.3 2 2.9.7 1.6 4.8 8.8 9.1 15.9 4.3 7.2 8 13.4 8.2 13.9.6 1.2 17.6 29.9 21 35.3 1.5 2.5 2.5 4.8 2.1 5.1-.4.3-14 9.5-30.2 20.4-16.2 10.9-35 23.6-41.8 28.2-6.7 4.6-12.9 8.6-13.6 8.9-.7.3-8.9-4.6-18.2-10.9-9.3-6.3-28.6-19.3-42.9-28.9-20.4-13.8-25.9-18-25.7-19.4.2-1.1.8-2.1 1.3-2.2.5-.2.9-.7.9-1.2 0-.7 21.5-37.7 25-43 .5-.8 1.9-3.3 3.1-5.5 1.2-2.2 3.5-5.9 5-8.2 1.6-2.3 2.9-4.4 2.9-4.6 0-.3 3.4-6.3 7.6-13.3 4.2-7.1 8.6-14.7 9.9-16.9 1.2-2.2 5-8.7 8.5-14.5 3.4-5.8 7.8-13.2 9.7-16.5 6-10.1 9.1-12.6 14-11.7 1.3.2 3.5 1.9 4.8 3.6zM82 215.7l22 14.6-1.9 3.1c-1 1.7-6.9 11.6-13.1 22.1-6.2 10.4-14.6 24.5-18.6 31.3-4.1 6.8-7.4 12.7-7.4 13.3 0 .5-.4.9-.8.9-.5 0-1.3 1-1.9 2.2-.6 1.4-.9-15.3-.9-50 0-28.7.1-52.2.3-52.2.2 0 10.2 6.6 22.3 14.7zm370.2 36.8c0 27.9-.2 50.8-.4 51-.3.4-42.6-70-43.6-72.5-.3-.9 42.9-30.2 43.6-29.5.2.2.4 23.2.4 51z"/></svg>